Patient4_TMGait_0pt4_02_left_20_EMG.mot
version=1
nRows=20
nColumns=33
inDegrees=no
endheader
time	1LAddLong	2LGlutMax	3LGlutMed	4LIliopsoas	5LSemiMemb	6LBicFemLong	7LRecFem	8LVastMed	9LVastLat	10LGasMed	11LTibAnt	12lTibPost	13LPeroneusLong	14LSol	15LExtDigLong	16LFlexDigLong	17RAddLong	18RGlutMax	19RGlutMed	20RIliopsoas	21RSemiMemb	22RBicFemLong	23RRecFem	24RVastMed	25RVastLat	26RGasMed	27RTibAnt	28RTibPost	29RPeroneusLong	30RSol	31RExtDigLong	32RFlexDigLong
27.27	0.001068	-0.18478	-0.10101	-0.007782	-0.051575	0.052795	-0.72571	-0.037231	0.3865	0.016327	0.053864	-0.018463	-0.061646	0.011139	0.040894	-0.083466	-0.02243	-0.21759	0.03418	-0.074005	0.025024	0.070953	0.44098	-0.062408	-0.055847	0.003357	-0.080109	-0.006866	0.17349	-0.010223	0.001068	-0.00824
27.271	-0.007324	-0.07309	-0.2153	0.00351	-0.091248	0.082703	-0.51697	-0.063477	0.24216	0.008545	0.007782	-0.019531	-0.060883	-0.084991	0.24216	-0.076599	0.020599	-0.25909	-0.095062	0.015411	0.030365	0.074768	0.42221	-0.054474	-0.042725	-0.00412	-0.44556	-0.001526	0.24902	0.016632	-0.001984	-0.012665
27.272	-0.002899	0.024719	-0.10391	0.001984	-0.16998	0.077209	-0.35614	-0.028076	-0.17029	0.023041	-0.010071	-0.01297	-0.10681	-0.017548	0.26627	-0.019379	0.053711	-0.29037	-0.035248	0.11398	0.009308	0.034027	0.41946	-0.078735	-0.045471	0.003815	-0.50171	-0.009766	0.19547	0.056458	0.000763	-0.008087
27.273	-0.005341	0.032196	0.070496	0.009918	-0.24628	0.006866	-0.31982	0.027466	-0.24368	0.036621	0.054626	-0.014191	-0.11429	0.038757	0.29159	-0.020142	0.065613	-0.32425	-0.10132	0.13519	-0.0177	0.01358	0.44739	-0.088196	-0.052643	-0.00412	-0.39612	-0.008545	0.15167	0.11734	-0.00061	-0.013733
27.274	0.009155	0.027618	0.13641	-0.000916	-0.10834	-0.07782	-0.51575	0.019836	0.016632	0.000458	0.090027	-0.014343	-0.019836	0.060883	0.86151	-0.031433	0.053253	-0.38254	-0.13016	0.094299	-0.016479	-0.014648	0.41657	-0.092773	-0.069733	0.005341	-0.27481	-0.00412	0.075073	0.1091	0.002136	-0.014648
27.275	0.018311	0.04303	0.095215	0.009766	0.15091	-0.14252	-0.76172	0.030212	0.21118	0.02121	0.33478	-0.017395	-0.018311	0.10056	0.13809	-0.004883	0.062866	-0.41657	-0.049591	0.11017	-0.023651	-0.020294	0.40298	-0.12131	-0.047455	0.011902	-0.2655	-0.004425	0.070343	0.095062	-0.001678	-0.00946
27.276	0.014343	0.12451	0.031586	0.019684	0.11078	-0.092468	-0.87738	0.010834	0.41641	-0.019226	0.41733	-0.014343	0.01358	0.14572	-0.21332	0.003357	0.045319	-0.40482	0.042725	0.023041	-0.021667	-0.01358	0.40085	-0.14114	-0.05188	0.023651	-0.08194	-0.002594	0.12421	0.002899	-0.003357	-0.010376
27.277	0.014954	0.15945	0.028229	0.022278	0.065002	-0.029297	-0.64728	-0.026703	0.49728	0.016174	0.21973	-0.014496	0.009918	0.010071	-0.26108	0.002289	0.037231	-0.45944	0.233	0.082092	-0.005035	0.012512	0.35568	-0.061188	-0.037079	0.002289	0.084381	-0.001984	0.068054	-0.019531	0.001373	-0.016479
27.278	0.008698	0.22369	-0.098724	0.028229	0.050659	0.11246	-0.56778	-0.014954	0.37445	0.002899	0.1712	-0.013885	0.011749	0.024567	-0.19989	0.00351	0.011139	-0.50201	0.14648	0.11612	0.014801	0.072937	0.3569	-0.043793	-0.028076	-0.001831	0.27985	-0.001984	-0.008698	-0.027924	0	-0.010986
27.279	-0.005341	0.27725	0.010986	0.021362	0.041656	0.14114	-0.64484	-0.00061	0.065155	-0.023193	-0.20432	-0.011444	-0.032349	0.13001	0.086823	0.006561	-0.001526	-0.50491	0.091705	0.065308	0.034485	0.14252	0.31097	-0.062866	-0.036774	-0.010223	0.99304	-0.002747	-0.075684	-0.020905	-0.002289	-0.017395
27.28	-0.005493	0.30289	0.24414	-0.00946	0.017548	0.099945	-0.58197	-0.001678	-0.20889	-0.094757	-0.34576	-0.009918	0.010376	0.22614	-0.2533	-0.00061	0.016174	-0.48675	0.07019	0.026703	0.032043	0.093536	0.34851	-0.074921	-0.034943	-0.002289	1.019	-0.000916	-0.010681	-0.064545	-0.000763	-0.006256
27.281	-0.000916	0.26382	0.15823	-0.008392	-0.033264	0.10635	-0.51422	-0.031738	-0.35736	-0.10864	-0.40131	-0.010223	0.083466	0.1918	-0.79346	-0.005035	0.010529	-0.52475	0.14648	-0.024261	0.031281	0.065613	0.30289	-0.12344	-0.046539	-0.006104	0.85525	-0.003815	0.077057	-0.029297	-0.000916	-0.00061
27.282	-0.001221	0.27557	0.094757	-0.003967	-0.069885	0.16052	-0.38467	-0.05249	-0.2269	-0.05188	-0.49286	-0.005798	0.091705	0.18601	-0.51163	-0.013123	0.005341	-0.52689	0.16464	-0.033569	0.011597	0.033569	0.30884	-0.13458	-0.020599	-0.000916	-0.17136	0.002899	0.14908	-0.00412	-0.00061	-0.000458
27.283	-0.016174	0.27557	0.039368	0.005493	-0.081482	0.22369	-0.35172	-0.040741	0.027618	0.001526	-0.24429	-0.008392	0.026398	0.055084	-0.5011	-0.019684	0.00946	-0.51407	-0.038605	-0.004425	0.002441	0.020905	0.27741	-0.11978	-0.036469	0.000153	-2.1983	-0.001678	0.20691	-0.056305	-0.001221	-0.003052
27.284	-0.011749	0.24674	0.048676	0.001526	-0.079651	0.25681	-0.48996	-0.042419	0.17075	0.010071	0.060272	-0.003357	0.001831	-0.18738	-0.43396	0.006561	-0.022278	-0.50781	-0.013275	-0.033569	-0.020447	0.021057	0.26321	-0.12863	-0.032501	0.004883	-2.2971	-0.005798	0.17838	-0.14023	0.001984	-0.001831
27.285	-0.011292	0.23682	-0.00412	-0.003357	-0.034332	0.34546	-0.47546	-0.051575	0.12528	0.009766	0.033569	-0.00412	0.023499	-0.2803	-0.354	-0.012665	-0.073547	-0.48233	0.15305	-0.11261	-0.008545	0.03006	0.26199	-0.033875	-0.045624	0.010681	-1.4798	-0.007019	0.13092	-0.087891	-0.00061	-0.006866
27.286	0.007477	0.19562	-0.000916	-0.006104	0.004425	0.46692	-0.57205	-0.050659	0.005188	0.01297	-0.032806	-0.010529	0.019684	-0.21271	-0.15884	0.00351	-0.069122	-0.48004	0.20065	-0.14999	0.015411	0.051117	0.24139	-0.044708	-0.023193	0.005646	-0.49805	-0.000916	0.10849	0.024719	-0.001678	-0.005035
27.287	0.006104	0.11993	-0.005646	-0.010071	0.005646	0.46295	-0.50644	-0.054932	-0.068054	-0.009155	-0.049744	-0.007782	0.023499	-0.24048	0.066681	-0.004272	-0.024719	-0.46036	0.27664	-0.21301	0.025177	0.11337	0.19409	0.025787	-0.015717	0.010529	0.038605	-0.007477	0.052338	0.050507	-0.000916	0.000916
27.288	0.001068	0.14664	-0.001526	0.023956	-0.003967	0.50873	-0.4155	-0.027924	-0.13199	-0.015106	0.021515	-0.007782	0.016632	-0.20645	0.1593	-0.011597	0.034943	-0.44342	0.4042	-0.18524	0.031128	0.14572	0.19287	-0.027924	0.005798	0.005188	0.52826	-0.002136	0.063629	0.042725	-0.002594	-0.011597
27.289	-0.004883	0.15778	0.039063	0.035858	-0.094299	0.048523	-0.35568	-0.006866	-0.16174	-0.007019	0.048828	-0.006104	-0.009766	-0.097504	0.17288	0.006409	0.016937	-0.49454	0.24307	-0.14603	0.02594	0.11765	0.17716	-0.011292	-0.010834	0.004883	0.98114	-0.003357	0.1181	-0.018921	-0.000153	-0.004425
